G04*
G04 #@! TF.GenerationSoftware,Altium Limited,Altium Designer,24.10.1 (45)*
G04*
G04 Layer_Physical_Order=2*
G04 Layer_Color=16711680*
%FSLAX44Y44*%
%MOMM*%
G71*
G04*
G04 #@! TF.SameCoordinates,A659C5E8-25CF-42C6-9C85-9A39C97684D2*
G04*
G04*
G04 #@! TF.FilePolarity,Positive*
G04*
G01*
G75*
%ADD31C,1.3900*%
%ADD32R,1.3900X1.3900*%
%ADD33C,3.2500*%
%ADD34R,1.5500X1.5500*%
%ADD35C,1.5500*%
%ADD36C,4.6000*%
%ADD37C,0.3810*%
%ADD38C,0.8890*%
D31*
X96520Y482600D02*
D03*
X78740Y472440D02*
D03*
X96520Y462280D02*
D03*
X78740Y452120D02*
D03*
X96520Y441960D02*
D03*
X78740Y431800D02*
D03*
X96520Y421640D02*
D03*
D32*
X78740Y411480D02*
D03*
D33*
X53340Y383540D02*
D03*
Y510540D02*
D03*
D34*
X123650Y121250D02*
D03*
D35*
X95250Y135100D02*
D03*
X123650Y148950D02*
D03*
X95250Y162800D02*
D03*
X123650Y176650D02*
D03*
X95250Y190500D02*
D03*
X123650Y204350D02*
D03*
X95250Y218200D02*
D03*
X123650Y232050D02*
D03*
D36*
X109250Y301600D02*
D03*
Y51700D02*
D03*
D37*
X355600Y289560D02*
Y309880D01*
X361950Y316230D01*
X401320D01*
X391160Y208280D02*
X488950D01*
X276860Y450850D02*
X279400Y453390D01*
X276860Y322580D02*
X391160Y208280D01*
X276860Y322580D02*
Y450850D01*
X279400Y453390D02*
X308610D01*
X251460Y480060D02*
X260350Y488950D01*
X251460Y244527D02*
Y480060D01*
X260350Y488950D02*
X514350D01*
X251460Y244527D02*
X302901Y193085D01*
X514350Y488950D02*
X523240Y480060D01*
X485140Y303530D02*
Y351790D01*
Y303530D02*
X492760Y295910D01*
X525780D01*
X565150Y529590D02*
X571500Y523240D01*
X199390Y529590D02*
X565150D01*
X571500Y339090D02*
Y523240D01*
X193040Y178762D02*
Y523240D01*
X199390Y529590D01*
X311150Y198120D02*
Y213360D01*
Y198120D02*
X318068Y191202D01*
Y156210D02*
Y191202D01*
X400777Y164557D02*
Y182880D01*
X392430Y156210D02*
X400777Y164557D01*
X318068Y156210D02*
X392430D01*
X570538Y264160D02*
X570836Y263862D01*
X574338D02*
X575310Y262890D01*
X570836Y263862D02*
X574338D01*
X557530Y264160D02*
X570538D01*
X525780Y295910D02*
X557530Y264160D01*
X436880Y400050D02*
X485140Y351790D01*
X351790Y400050D02*
X436880D01*
X308610Y443230D02*
X351790Y400050D01*
X292100Y443230D02*
X308610D01*
X523240Y321310D02*
Y480060D01*
X193040Y178762D02*
X195272Y176530D01*
X299720D01*
X406400Y321310D02*
Y360680D01*
X401320Y316230D02*
X406400Y321310D01*
X449520Y283210D02*
X449550Y283180D01*
X414020Y283210D02*
X449520D01*
X407670Y289560D02*
X414020Y283210D01*
X355600Y289560D02*
X407670D01*
D38*
X318068Y156210D02*
D03*
X311150Y213360D02*
D03*
X400777Y182880D02*
D03*
X488950Y208280D02*
D03*
X523240Y321310D02*
D03*
X575310Y262890D02*
D03*
X406400Y360680D02*
D03*
X299720Y176530D02*
D03*
X302901Y193085D02*
D03*
X571500Y339090D02*
D03*
X449550Y283180D02*
D03*
X355600Y289560D02*
D03*
X292100Y443230D02*
D03*
X308610Y453390D02*
D03*
M02*
