G04*
G04 #@! TF.GenerationSoftware,Altium Limited,Altium Designer,24.10.1 (45)*
G04*
G04 Layer_Physical_Order=1*
G04 Layer_Color=255*
%FSLAX44Y44*%
%MOMM*%
G71*
G04*
G04 #@! TF.SameCoordinates,A659C5E8-25CF-42C6-9C85-9A39C97684D2*
G04*
G04*
G04 #@! TF.FilePolarity,Positive*
G04*
G01*
G75*
%ADD16R,1.5000X0.9000*%
%ADD17R,0.9000X0.9000*%
%ADD18R,1.5562X1.3549*%
%ADD19R,1.4000X0.9500*%
%ADD20R,0.9500X1.4000*%
%ADD21R,1.6554X0.3808*%
G04:AMPARAMS|DCode=22|XSize=1.6554mm|YSize=0.3808mm|CornerRadius=0.1904mm|HoleSize=0mm|Usage=FLASHONLY|Rotation=0.000|XOffset=0mm|YOffset=0mm|HoleType=Round|Shape=RoundedRectangle|*
%AMROUNDEDRECTD22*
21,1,1.6554,0.0000,0,0,0.0*
21,1,1.2747,0.3808,0,0,0.0*
1,1,0.3808,0.6373,0.0000*
1,1,0.3808,-0.6373,0.0000*
1,1,0.3808,-0.6373,0.0000*
1,1,0.3808,0.6373,0.0000*
%
%ADD22ROUNDEDRECTD22*%
%ADD23R,0.9000X1.0000*%
%ADD24R,1.8692X0.5421*%
G04:AMPARAMS|DCode=25|XSize=1.8692mm|YSize=0.5421mm|CornerRadius=0.2711mm|HoleSize=0mm|Usage=FLASHONLY|Rotation=180.000|XOffset=0mm|YOffset=0mm|HoleType=Round|Shape=RoundedRectangle|*
%AMROUNDEDRECTD25*
21,1,1.8692,0.0000,0,0,180.0*
21,1,1.3270,0.5421,0,0,180.0*
1,1,0.5421,-0.6635,0.0000*
1,1,0.5421,0.6635,0.0000*
1,1,0.5421,0.6635,0.0000*
1,1,0.5421,-0.6635,0.0000*
%
%ADD25ROUNDEDRECTD25*%
%ADD26R,1.0000X0.9000*%
%ADD31C,1.3900*%
%ADD32R,1.3900X1.3900*%
%ADD33C,3.2500*%
%ADD34R,1.5500X1.5500*%
%ADD35C,1.5500*%
%ADD36C,4.6000*%
%ADD37C,0.3810*%
%ADD38C,0.8890*%
D16*
X377050Y361180D02*
D03*
Y348480D02*
D03*
Y335780D02*
D03*
Y323080D02*
D03*
Y310380D02*
D03*
Y297680D02*
D03*
Y284980D02*
D03*
Y272280D02*
D03*
Y259580D02*
D03*
Y246880D02*
D03*
Y234180D02*
D03*
Y221480D02*
D03*
Y208780D02*
D03*
Y196080D02*
D03*
Y183380D02*
D03*
Y170680D02*
D03*
Y157980D02*
D03*
Y145280D02*
D03*
Y132580D02*
D03*
X552050D02*
D03*
Y145280D02*
D03*
Y157980D02*
D03*
Y170680D02*
D03*
Y183380D02*
D03*
Y196080D02*
D03*
Y208780D02*
D03*
Y221480D02*
D03*
Y234180D02*
D03*
Y246880D02*
D03*
Y259580D02*
D03*
Y272280D02*
D03*
Y284980D02*
D03*
Y297680D02*
D03*
Y310380D02*
D03*
Y323080D02*
D03*
Y335780D02*
D03*
Y348480D02*
D03*
Y361180D02*
D03*
D17*
X449550Y283180D02*
D03*
X435550Y269180D02*
D03*
X449550D02*
D03*
X463550D02*
D03*
Y283180D02*
D03*
Y297180D02*
D03*
X449550D02*
D03*
X435550D02*
D03*
Y283180D02*
D03*
D18*
X334010Y380537D02*
D03*
Y400050D02*
D03*
D19*
Y440690D02*
D03*
Y459190D02*
D03*
X269240Y309880D02*
D03*
Y291380D02*
D03*
X205740Y228050D02*
D03*
Y209550D02*
D03*
X194310Y195030D02*
D03*
Y176530D02*
D03*
D20*
X324400Y259080D02*
D03*
X342900D02*
D03*
D21*
X274006Y213250D02*
D03*
D22*
Y206750D02*
D03*
Y200250D02*
D03*
Y193750D02*
D03*
Y187250D02*
D03*
Y180750D02*
D03*
Y174250D02*
D03*
Y167750D02*
D03*
X330514D02*
D03*
Y174250D02*
D03*
Y180750D02*
D03*
Y187250D02*
D03*
Y193750D02*
D03*
Y200250D02*
D03*
Y206750D02*
D03*
Y213250D02*
D03*
D23*
X205740Y375920D02*
D03*
X192740D02*
D03*
D24*
X269516Y430530D02*
D03*
D25*
X269516Y443230D02*
D03*
X269516Y455930D02*
D03*
Y468630D02*
D03*
X223244D02*
D03*
Y455930D02*
D03*
X223244Y443230D02*
D03*
X223244Y430530D02*
D03*
D26*
X186690Y457500D02*
D03*
Y444500D02*
D03*
D31*
X96520Y482600D02*
D03*
X78740Y472440D02*
D03*
X96520Y462280D02*
D03*
X78740Y452120D02*
D03*
X96520Y441960D02*
D03*
X78740Y431800D02*
D03*
X96520Y421640D02*
D03*
D32*
X78740Y411480D02*
D03*
D33*
X53340Y383540D02*
D03*
Y510540D02*
D03*
D34*
X123650Y121250D02*
D03*
D35*
X95250Y135100D02*
D03*
X123650Y148950D02*
D03*
X95250Y162800D02*
D03*
X123650Y176650D02*
D03*
X95250Y190500D02*
D03*
X123650Y204350D02*
D03*
X95250Y218200D02*
D03*
X123650Y232050D02*
D03*
D36*
X109250Y301600D02*
D03*
Y51700D02*
D03*
D37*
X247650Y435610D02*
Y478790D01*
X175260Y483870D02*
X242570D01*
X247650Y478790D01*
X214630Y375920D02*
X223244Y384534D01*
Y430530D01*
X242570D01*
X205740Y375920D02*
X214630D01*
X342900Y259080D02*
X353060D01*
X355600Y261620D01*
X377050Y361180D02*
X407170D01*
X342900Y247650D02*
Y259080D01*
X354830Y198890D02*
Y235720D01*
X342900Y247650D02*
X354830Y235720D01*
X574040Y365760D02*
Y453390D01*
X552050Y361180D02*
X569460D01*
X574040Y365760D01*
X348288Y459190D02*
X568240D01*
X574040Y453390D01*
X340360Y417830D02*
X347980D01*
X334010Y411480D02*
X340360Y417830D01*
X269516Y430530D02*
X308610D01*
X317485Y439405D02*
X332725D01*
X308610Y430530D02*
X317485Y439405D01*
X332725D02*
X334010Y440690D01*
X63500Y438150D02*
Y472440D01*
X69149Y432500D02*
X78039D01*
X78740Y431800D01*
X63500Y438150D02*
X69149Y432500D01*
X132080Y466090D02*
X140970Y457200D01*
X310953Y163325D02*
X321878Y174250D01*
X300028Y152400D02*
X310953Y163325D01*
X318068Y156210D01*
X311150Y213360D02*
X317760Y206750D01*
X330514D01*
X320348Y134620D02*
X344170Y158442D01*
X231140Y134620D02*
X320348D01*
X344170Y158442D02*
Y189560D01*
X377050Y183380D02*
X400550D01*
X374455Y185975D02*
X377050Y183380D01*
X354830Y198890D02*
X367745Y185975D01*
X374455D01*
X489450Y208780D02*
X552050D01*
X488950Y208280D02*
X489450Y208780D01*
X534170Y310380D02*
X552050D01*
X523240Y321310D02*
X534170Y310380D01*
X575310Y254000D02*
Y262890D01*
X568190Y246880D02*
X575310Y254000D01*
X552050Y246880D02*
X568190D01*
X551180Y247650D02*
X551950Y246880D01*
X552050D01*
X303530Y193040D02*
X308610D01*
X314400Y187250D02*
X330514D01*
X308610Y193040D02*
X314400Y187250D01*
X299720Y176530D02*
X311150D01*
X315370Y180750D02*
X330514D01*
X311150Y176530D02*
X315370Y180750D01*
X269516Y443230D02*
X292100D01*
X292100Y443230D01*
X300990Y461010D02*
X308610Y453390D01*
X283210Y461010D02*
X300990D01*
X269516Y455930D02*
X269824Y456238D01*
X278438D01*
X283210Y461010D01*
X334010Y380537D02*
X335280D01*
X320503D02*
X334010D01*
X335280Y351482D02*
Y380537D01*
X313690Y387350D02*
Y414020D01*
X322580Y422910D01*
X328930D01*
X334010Y427990D01*
X313690Y387350D02*
X320503Y380537D01*
X335280Y351482D02*
X337512Y349250D01*
X376280D01*
X334010Y427990D02*
Y440690D01*
Y459190D02*
X348288D01*
X269516Y468630D02*
X311150D01*
X320590Y459190D02*
X334010D01*
X311150Y468630D02*
X320590Y459190D01*
X334010Y400050D02*
Y411480D01*
Y400050D02*
X345440D01*
X355600Y261620D02*
Y289560D01*
X571500Y325312D02*
Y339090D01*
X552050Y323080D02*
X569268D01*
X571500Y325312D01*
X330514Y213250D02*
Y219396D01*
X255270Y252730D02*
X297180D01*
X330514Y219396D01*
X321878Y174250D02*
X330514D01*
X276552Y152400D02*
X300028D01*
X167640Y160020D02*
X272088D01*
X274320Y154632D02*
Y162252D01*
Y154632D02*
X276552Y152400D01*
X339980Y193750D02*
X344170Y189560D01*
X330514Y193750D02*
X339980D01*
X330514Y200250D02*
X342040D01*
X355600Y186690D01*
X96040Y135890D02*
X161290D01*
X95250Y135100D02*
X96040Y135890D01*
X161290D02*
X172720Y124460D01*
X353368D01*
X355600Y126692D01*
Y186690D01*
X216810Y148950D02*
X231140Y134620D01*
X123650Y148950D02*
X216810D01*
X268690Y290830D02*
X269240Y291380D01*
X257502Y290830D02*
X268690D01*
X255270Y269240D02*
Y288598D01*
X257502Y290830D01*
X255270Y269240D02*
X261620Y262890D01*
X302260D01*
X306070Y259080D01*
X324400D01*
X269240Y279092D02*
X271472Y276860D01*
X325428D01*
X269240Y279092D02*
Y291380D01*
X327660Y279092D02*
Y333548D01*
X325428Y276860D02*
X327660Y279092D01*
X324400Y243290D02*
Y259080D01*
X331470Y236220D02*
X343208D01*
X345440Y208982D02*
Y233988D01*
X343208Y236220D02*
X345440Y233988D01*
X324400Y243290D02*
X331470Y236220D01*
X330514Y206750D02*
X343208D01*
X345440Y208982D01*
X267970Y308610D02*
X269240Y309880D01*
X242262Y308610D02*
X267970D01*
X240030Y267970D02*
Y306378D01*
X242262Y308610D01*
X240030Y267970D02*
X255270Y252730D01*
X269240Y430254D02*
X269516Y430530D01*
X269240Y309880D02*
Y430254D01*
X376280Y349250D02*
X377050Y348480D01*
X272088Y160020D02*
X274320Y162252D01*
Y167749D01*
X151010Y176650D02*
X167640Y160020D01*
X123650Y176650D02*
X151010D01*
X327660Y333548D02*
X329892Y335780D01*
X377050D01*
X368300Y377190D02*
X374818D01*
X377050Y361180D02*
Y374958D01*
X374818Y377190D02*
X377050Y374958D01*
X345440Y400050D02*
X368300Y377190D01*
X347980Y417830D02*
X350520Y420370D01*
Y456958D01*
X348288Y459190D02*
X350520Y456958D01*
X194310Y176530D02*
X213360D01*
X224080Y187250D01*
X274006D01*
X194310Y195030D02*
X195590Y193750D01*
X274006D01*
X205740Y209550D02*
X231140D01*
X240440Y200250D02*
X274006D01*
X231140Y209550D02*
X240440Y200250D01*
X205740Y228050D02*
X206290Y228600D01*
X231140D01*
X246490Y213250D01*
X274006D01*
X114300Y444500D02*
X120650D01*
X96520Y462280D02*
X114300Y444500D01*
X63500Y472440D02*
X83820Y492760D01*
X105410D01*
X130810Y467360D01*
X49530Y413712D02*
X51762Y411480D01*
X78740D01*
X49530Y469900D02*
X78740Y499110D01*
X49530Y413712D02*
Y469900D01*
X78740Y499110D02*
X113030D01*
X139700Y472440D01*
X182880Y375920D02*
X192740D01*
X123190Y394970D02*
X163830D01*
X182880Y375920D01*
X96520Y421640D02*
X123190Y394970D01*
X140970Y457200D02*
X186390D01*
X186690Y457500D01*
X120650Y444500D02*
X186690D01*
X209550Y455930D02*
X223244D01*
X198120Y444500D02*
X209550Y455930D01*
X186690Y444500D02*
X198120D01*
X198420Y457500D02*
X209550Y468630D01*
X223244D01*
X186690Y457500D02*
X198420D01*
X216176Y443230D02*
X223244D01*
X193040Y420094D02*
X216176Y443230D01*
X242570Y430530D02*
X247650Y435610D01*
X163830Y472440D02*
X175260Y483870D01*
X139700Y472440D02*
X163830D01*
X193040Y376220D02*
Y420094D01*
D38*
X318068Y156210D02*
D03*
X311150Y213360D02*
D03*
X400777Y182880D02*
D03*
X488950Y208280D02*
D03*
X523240Y321310D02*
D03*
X575310Y262890D02*
D03*
X406400Y360680D02*
D03*
X299720Y176530D02*
D03*
X302901Y193085D02*
D03*
X571500Y339090D02*
D03*
X449550Y283180D02*
D03*
X355600Y289560D02*
D03*
X292100Y443230D02*
D03*
X308610Y453390D02*
D03*
M02*
