G04*
G04 #@! TF.GenerationSoftware,Altium Limited,Altium Designer,24.10.1 (45)*
G04*
G04 Layer_Color=8388736*
%FSLAX44Y44*%
%MOMM*%
G71*
G04*
G04 #@! TF.SameCoordinates,A659C5E8-25CF-42C6-9C85-9A39C97684D2*
G04*
G04*
G04 #@! TF.FilePolarity,Negative*
G04*
G01*
G75*
%ADD18R,1.5562X1.3549*%
%ADD19R,1.4000X0.9500*%
%ADD20R,0.9500X1.4000*%
%ADD21R,1.6554X0.3808*%
G04:AMPARAMS|DCode=22|XSize=1.6554mm|YSize=0.3808mm|CornerRadius=0.1904mm|HoleSize=0mm|Usage=FLASHONLY|Rotation=0.000|XOffset=0mm|YOffset=0mm|HoleType=Round|Shape=RoundedRectangle|*
%AMROUNDEDRECTD22*
21,1,1.6554,0.0000,0,0,0.0*
21,1,1.2747,0.3808,0,0,0.0*
1,1,0.3808,0.6373,0.0000*
1,1,0.3808,-0.6373,0.0000*
1,1,0.3808,-0.6373,0.0000*
1,1,0.3808,0.6373,0.0000*
%
%ADD22ROUNDEDRECTD22*%
%ADD24R,1.8692X0.5421*%
G04:AMPARAMS|DCode=25|XSize=1.8692mm|YSize=0.5421mm|CornerRadius=0.2711mm|HoleSize=0mm|Usage=FLASHONLY|Rotation=180.000|XOffset=0mm|YOffset=0mm|HoleType=Round|Shape=RoundedRectangle|*
%AMROUNDEDRECTD25*
21,1,1.8692,0.0000,0,0,180.0*
21,1,1.3270,0.5421,0,0,180.0*
1,1,0.5421,-0.6635,0.0000*
1,1,0.5421,0.6635,0.0000*
1,1,0.5421,0.6635,0.0000*
1,1,0.5421,-0.6635,0.0000*
%
%ADD25ROUNDEDRECTD25*%
%ADD27R,1.7032X1.1032*%
%ADD28R,1.1032X1.1032*%
%ADD29R,1.1032X1.2032*%
%ADD30R,1.2032X1.1032*%
%ADD31C,1.3900*%
%ADD32R,1.3900X1.3900*%
%ADD33C,3.2500*%
%ADD34R,1.5500X1.5500*%
%ADD35C,1.5500*%
%ADD36C,4.6000*%
D18*
X334010Y380537D02*
D03*
Y400050D02*
D03*
D19*
Y440690D02*
D03*
Y459190D02*
D03*
X269240Y309880D02*
D03*
Y291380D02*
D03*
X205740Y228050D02*
D03*
Y209550D02*
D03*
X194310Y195030D02*
D03*
Y176530D02*
D03*
D20*
X324400Y259080D02*
D03*
X342900D02*
D03*
D21*
X274006Y213250D02*
D03*
D22*
Y206750D02*
D03*
Y200250D02*
D03*
Y193750D02*
D03*
Y187250D02*
D03*
Y180750D02*
D03*
Y174250D02*
D03*
Y167750D02*
D03*
X330514D02*
D03*
Y174250D02*
D03*
Y180750D02*
D03*
Y187250D02*
D03*
Y193750D02*
D03*
Y200250D02*
D03*
Y206750D02*
D03*
Y213250D02*
D03*
D24*
X269516Y430530D02*
D03*
D25*
X269516Y443230D02*
D03*
X269516Y455930D02*
D03*
Y468630D02*
D03*
X223244D02*
D03*
Y455930D02*
D03*
X223244Y443230D02*
D03*
X223244Y430530D02*
D03*
D27*
X377050Y361180D02*
D03*
Y348480D02*
D03*
Y335780D02*
D03*
Y323080D02*
D03*
Y310380D02*
D03*
Y297680D02*
D03*
Y284980D02*
D03*
Y272280D02*
D03*
Y259580D02*
D03*
Y246880D02*
D03*
Y234180D02*
D03*
Y221480D02*
D03*
Y208780D02*
D03*
Y196080D02*
D03*
Y183380D02*
D03*
Y170680D02*
D03*
Y157980D02*
D03*
Y145280D02*
D03*
Y132580D02*
D03*
X552050D02*
D03*
Y145280D02*
D03*
Y157980D02*
D03*
Y170680D02*
D03*
Y183380D02*
D03*
Y196080D02*
D03*
Y208780D02*
D03*
Y221480D02*
D03*
Y234180D02*
D03*
Y246880D02*
D03*
Y259580D02*
D03*
Y272280D02*
D03*
Y284980D02*
D03*
Y297680D02*
D03*
Y310380D02*
D03*
Y323080D02*
D03*
Y335780D02*
D03*
Y348480D02*
D03*
Y361180D02*
D03*
D28*
X449550Y283180D02*
D03*
X435550Y269180D02*
D03*
X449550D02*
D03*
X463550D02*
D03*
Y283180D02*
D03*
Y297180D02*
D03*
X449550D02*
D03*
X435550D02*
D03*
Y283180D02*
D03*
D29*
X205740Y375920D02*
D03*
X192740D02*
D03*
D30*
X186690Y457500D02*
D03*
Y444500D02*
D03*
D31*
X96520Y482600D02*
D03*
X78740Y472440D02*
D03*
X96520Y462280D02*
D03*
X78740Y452120D02*
D03*
X96520Y441960D02*
D03*
X78740Y431800D02*
D03*
X96520Y421640D02*
D03*
D32*
X78740Y411480D02*
D03*
D33*
X53340Y383540D02*
D03*
Y510540D02*
D03*
D34*
X123650Y121250D02*
D03*
D35*
X95250Y135100D02*
D03*
X123650Y148950D02*
D03*
X95250Y162800D02*
D03*
X123650Y176650D02*
D03*
X95250Y190500D02*
D03*
X123650Y204350D02*
D03*
X95250Y218200D02*
D03*
X123650Y232050D02*
D03*
D36*
X109250Y301600D02*
D03*
Y51700D02*
D03*
M02*
