M48
;Layer_Color=9474304
;FILE_FORMAT=4:4
METRIC,LZ
;TYPE=PLATED
T01F00S00C0.3810
T02F00S00C0.8900
T03F00S00C1.0000
T04F00S00C3.0500
;TYPE=NON_PLATED
T05F00S00C3.2500
%
T01
X0057531Y0026289
X005715Y0033909
X0052324Y0032131
X0044955Y0028318
X003556Y0028956
X0031115Y0021336
X00302901Y00193085
X0029972Y0017653
X00318068Y0015621
X00400777Y0018288
X0048895Y0020828
X004064Y0036068
X0030861Y0045339
X002921Y0044323
T02
X0007874Y0041148
Y004318
Y0045212
Y0047244
X0009652Y004826
Y0046228
Y0044196
Y0042164
T03
X0009525Y001351
X0012365Y0012125
Y0014895
Y0017665
Y0020435
Y0023205
X0009525Y002182
Y001905
Y001628
T04
X0010925Y000517
Y003016
T05
X0005334Y0038354
Y0051054
M30
