G04*
G04 #@! TF.GenerationSoftware,Altium Limited,Altium Designer,24.10.1 (45)*
G04*
G04 Layer_Physical_Order=1*
G04 Layer_Color=255*
%FSLAX44Y44*%
%MOMM*%
G71*
G04*
G04 #@! TF.SameCoordinates,DF843893-4558-481A-A0A7-994FBF74EE7B*
G04*
G04*
G04 #@! TF.FilePolarity,Positive*
G04*
G01*
G75*
%ADD11C,0.2540*%
%ADD15R,0.2500X1.3500*%
%ADD16R,1.3500X0.2500*%
%ADD17R,1.0000X1.3500*%
%ADD18R,1.3546X1.4621*%
%ADD19R,1.3549X1.5562*%
%ADD20R,0.5200X0.5200*%
%ADD21R,1.4057X1.5082*%
%ADD22R,0.9000X1.6000*%
%ADD23R,0.9500X1.3500*%
%ADD24R,1.3500X1.0000*%
%ADD25R,1.0500X1.0500*%
%ADD26R,1.3621X1.1578*%
%ADD27R,1.3500X0.9500*%
%ADD28R,1.0500X1.0500*%
%ADD29R,1.5562X1.3549*%
%ADD30R,0.5200X0.5200*%
%ADD31R,1.0065X1.4082*%
%ADD32R,1.4621X1.3546*%
%ADD33R,0.4500X0.3500*%
%ADD34R,0.3000X0.4000*%
%ADD35R,0.2500X0.4000*%
%ADD36R,1.4750X0.3000*%
%ADD37R,0.3000X1.4750*%
%ADD38R,0.5500X0.5500*%
%ADD39R,1.5500X0.9000*%
%ADD40R,0.8065X1.3082*%
%ADD41R,1.3000X0.9000*%
%ADD65C,1.5000*%
G04:AMPARAMS|DCode=66|XSize=1.5mm|YSize=1.5mm|CornerRadius=0.375mm|HoleSize=0mm|Usage=FLASHONLY|Rotation=90.000|XOffset=0mm|YOffset=0mm|HoleType=Round|Shape=RoundedRectangle|*
%AMROUNDEDRECTD66*
21,1,1.5000,0.7500,0,0,90.0*
21,1,0.7500,1.5000,0,0,90.0*
1,1,0.7500,0.3750,0.3750*
1,1,0.7500,0.3750,-0.3750*
1,1,0.7500,-0.3750,-0.3750*
1,1,0.7500,-0.3750,0.3750*
%
%ADD66ROUNDEDRECTD66*%
%ADD67R,1.8000X1.8000*%
%ADD68C,1.8000*%
%ADD69R,1.3500X1.3500*%
%ADD70C,1.3500*%
%ADD71C,1.2700*%
%ADD72C,0.9144*%
%ADD73C,0.8890*%
D11*
X42916Y453057D02*
G03*
X58202Y466090I-8191J25088D01*
G01*
X365760Y262090D02*
X367030Y263360D01*
X365760Y252330D02*
Y262090D01*
X405130Y326390D02*
X406400D01*
X382160Y78740D02*
X383430Y80010D01*
X364490Y78740D02*
X382160D01*
X424070Y49420D02*
X424180Y49530D01*
X424070Y31750D02*
Y49420D01*
X327140Y399300D02*
Y421640D01*
X284740D02*
X326437D01*
X327140D02*
Y434340D01*
Y494030D01*
X241807Y434340D02*
X327140D01*
X462280Y389890D02*
X467360D01*
X461010D02*
X462280D01*
X432140Y754380D02*
X433070D01*
X397140D02*
X402590D01*
X427990D02*
X432140D01*
X427990Y389890D02*
X431800D01*
X396240Y754380D02*
X397140D01*
X431800Y389890D02*
X433070D01*
X397700Y74530D02*
Y76280D01*
X393104Y69934D02*
X397700Y74530D01*
X393104Y64174D02*
Y69934D01*
X391160Y62230D02*
X393104Y64174D01*
X385210Y157480D02*
X385230Y157460D01*
X397700Y76280D02*
X401430Y80010D01*
Y115340D01*
X433070Y76299D02*
Y115450D01*
Y76299D02*
X438040Y71329D01*
Y68580D02*
Y71329D01*
X432950Y115570D02*
X433070Y115450D01*
X392648Y49530D02*
X417950Y74832D01*
X391160Y48042D02*
X392648Y49530D01*
X390210Y144460D02*
X418525Y116145D01*
X417950Y74832D02*
Y115570D01*
X391160Y34170D02*
Y48042D01*
X392648Y49530D02*
X406290D01*
X391160Y34170D02*
X391762Y34772D01*
X346710Y26670D02*
X354210Y19170D01*
X391160D01*
X400204Y148744D02*
X414328Y134620D01*
X410598Y143738D02*
X468402D01*
X405210Y157480D02*
X405230Y157460D01*
Y149106D02*
Y157460D01*
Y149106D02*
X410598Y143738D01*
X414328Y134620D02*
X463550D01*
X400204Y148744D02*
Y157474D01*
X400210Y157480D01*
X395230Y148330D02*
X414020Y129540D01*
X511145Y547620D02*
X517020D01*
X499965Y558800D02*
X511145Y547620D01*
X473710Y558800D02*
X499965D01*
X562206Y191770D02*
X580390D01*
X546972Y153670D02*
X548640D01*
X522836Y160020D02*
X540622D01*
X546972Y153670D01*
X462160Y116840D02*
X463550Y118230D01*
Y134620D01*
X472980Y152000D02*
X506358Y118622D01*
X415210Y150078D02*
X417098Y148190D01*
X435210Y152020D02*
Y157480D01*
X470300Y148190D02*
X492808Y125682D01*
X435230Y152000D02*
X472980D01*
X417098Y148190D02*
X470300D01*
X468402Y143738D02*
X477120Y135020D01*
X435210Y152020D02*
X435230Y152000D01*
X415210Y150078D02*
Y157480D01*
X395230Y148330D02*
Y157460D01*
X414020Y129540D02*
X436460D01*
X395210Y157480D02*
X395230Y157460D01*
X436460Y129540D02*
X447160Y118840D01*
Y116840D02*
Y118840D01*
X472180Y113170D02*
X477120Y118110D01*
Y135020D01*
X492808Y120298D02*
Y125682D01*
X490620Y118110D02*
X492808Y120298D01*
X490620Y118110D02*
X494600Y114130D01*
X365760Y241300D02*
X367030Y240030D01*
X364490Y241300D02*
X365760D01*
X367030Y240030D02*
X380190D01*
X358140Y247650D02*
X364490Y241300D01*
X380190Y240030D02*
X380210Y240050D01*
Y242480D01*
X358140Y247650D02*
Y320130D01*
X464820Y281940D02*
X478790D01*
X382905Y314325D02*
X383540Y314960D01*
X382270Y301370D02*
X382905Y302005D01*
Y314325D01*
X406400Y326390D02*
X482134D01*
X372328D02*
X405130D01*
Y302912D02*
Y325120D01*
X406400Y326390D01*
X672510Y268650D02*
X712470Y308610D01*
X670124Y260350D02*
X672510Y262736D01*
X645160Y260350D02*
X670124D01*
X672510Y262736D02*
Y268650D01*
X639060Y266450D02*
X645160Y260350D01*
X553720Y266450D02*
X639060D01*
X600390Y177480D02*
X650390Y227480D01*
X450210D02*
X650390D01*
X689610Y266700D01*
X750570D02*
X751840Y267970D01*
Y340360D01*
X745490Y346710D02*
X751840Y340360D01*
X662470Y346710D02*
X745490D01*
X513801Y707390D02*
X563880D01*
X689610Y266700D02*
X750570D01*
X450210Y177480D02*
X600390D01*
X417830Y363220D02*
X427990Y363220D01*
X434340Y356870D01*
X416670Y361470D02*
Y363220D01*
Y361470D02*
X420400Y357740D01*
X576110Y356870D02*
X662470Y270510D01*
X434340Y356870D02*
X576110D01*
X553720Y266450D02*
X567690Y280420D01*
X391070Y353060D02*
X449470D01*
X358140Y320130D02*
X391070Y353060D01*
X449470D02*
X460900Y341630D01*
X254209Y166370D02*
X275480D01*
X247650Y170180D02*
X250399D01*
X254209Y166370D01*
X275480D02*
X275590Y166480D01*
X648504Y191926D02*
X660086D01*
X662470Y194310D01*
X621231Y164653D02*
X648504Y191926D01*
X669290Y232410D02*
X712470D01*
X612140Y175260D02*
X669290Y232410D01*
X626110Y135890D02*
X646430Y156210D01*
X712470D01*
X454692Y532655D02*
X489692D01*
X491910Y530437D01*
Y522970D02*
Y530437D01*
Y522970D02*
X492140Y522740D01*
X426910Y530437D02*
X427370D01*
X456910Y522970D02*
Y530437D01*
X454692Y532655D02*
X456910Y530437D01*
Y522970D02*
X457140Y522740D01*
X427370Y530437D02*
X429588Y532655D01*
X454692D01*
X385210Y133560D02*
X401200Y117570D01*
X334010Y113030D02*
X351680D01*
X352950Y114300D01*
X624205Y117475D02*
X661835D01*
X662470Y118110D01*
X623570Y116840D02*
X624205Y117475D01*
X624840Y81280D02*
X625475Y80645D01*
X711835D02*
X712470Y80010D01*
X625475Y80645D02*
X711835D01*
X524510Y29319D02*
Y53340D01*
Y5298D02*
Y29319D01*
X504190Y27940D02*
X523131D01*
X524510Y29319D01*
X587290Y45720D02*
X662470D01*
X524510Y53340D02*
X572780D01*
X523022Y3810D02*
X524510Y5298D01*
X486520Y3810D02*
X523022D01*
X464850Y23730D02*
X466600D01*
X486520Y3810D01*
X461120Y27460D02*
Y29210D01*
Y27460D02*
X464850Y23730D01*
X443120Y29210D02*
X446930Y33020D01*
X472180Y81280D02*
Y113170D01*
Y31490D02*
Y81280D01*
X475730Y27940D02*
X484674D01*
X472180Y31490D02*
X475730Y27940D01*
X524882Y118110D02*
Y157974D01*
X522836Y160020D02*
X524882Y157974D01*
X501650Y389890D02*
Y410210D01*
X505460Y389890D02*
Y412750D01*
X659130Y387350D02*
Y547370D01*
Y350050D02*
Y387350D01*
X505460Y389890D02*
X656590D01*
X501650D02*
X505460D01*
X656590D02*
X659130Y387350D01*
Y350050D02*
X662470Y346710D01*
X482140Y429720D02*
X501650Y410210D01*
X496570Y389890D02*
X501650D01*
X487140Y431070D02*
X505460Y412750D01*
X555678Y341630D02*
X567690Y329618D01*
Y280420D02*
Y329618D01*
X478900Y341630D02*
X555678D01*
X510849Y297138D02*
X516353Y291634D01*
X510849Y297138D02*
Y297675D01*
X482134Y326390D02*
X510849Y297675D01*
X516353Y291634D02*
X516890D01*
X380940Y294700D02*
X385210Y290430D01*
X370840Y324902D02*
X372328Y326390D01*
X379452Y296230D02*
X380940Y294742D01*
X370840Y304008D02*
Y324902D01*
X378618Y296230D02*
X379452D01*
X370840Y304008D02*
X378618Y296230D01*
X380940Y294700D02*
Y294742D01*
X353739Y321117D02*
X390362Y357740D01*
X394940D01*
X353739Y238760D02*
Y321117D01*
X400210Y157480D02*
Y164072D01*
X428618Y192480D01*
X443230Y339090D02*
X458360D01*
X460900Y341630D01*
X353060Y363220D02*
X369810D01*
X345440Y355600D02*
X353060Y363220D01*
X552892Y202091D02*
X562206Y192777D01*
X518219Y193847D02*
X526464Y202091D01*
X562206Y191770D02*
Y192777D01*
X505460Y193847D02*
X518219D01*
X526464Y202091D02*
X552892D01*
X514293Y184533D02*
X521531Y191770D01*
X542693D01*
X486455Y184533D02*
X514293D01*
X483508Y187480D02*
X486455Y184533D01*
X428618Y192480D02*
X450210D01*
X477151D02*
X504093D01*
X450210D02*
X477151D01*
X450210Y197480D02*
X472151D01*
X477151Y192480D01*
X504093D02*
X505460Y193847D01*
X517427Y311150D02*
X536727Y330450D01*
X553720D01*
X585470Y43900D02*
X587290Y45720D01*
X528320Y64304D02*
X576124D01*
X582220Y70400D01*
X585470D01*
X572780Y53340D02*
X582220Y43900D01*
X585470D01*
X525780Y81280D02*
X528320Y83820D01*
X503180Y81280D02*
X525780D01*
X529682Y82952D02*
X530148Y83418D01*
X446930Y33020D02*
Y116610D01*
X447160Y116840D01*
X503180Y81280D02*
Y92335D01*
X401200Y115570D02*
X401430Y115340D01*
X370950Y141160D02*
X378460Y133650D01*
X370600Y141510D02*
X370950Y141160D01*
Y114300D02*
Y141160D01*
X275590Y148480D02*
X305720D01*
X307340Y150100D01*
X385210Y275590D02*
Y290430D01*
Y242480D02*
Y275590D01*
X384810Y275990D02*
X385210Y275590D01*
X370840Y275990D02*
X384810D01*
X275590Y209550D02*
X283210Y217170D01*
X275590Y199500D02*
Y209550D01*
Y181500D02*
X305586D01*
X306566Y182480D01*
X516890Y311150D02*
X517427D01*
X394940Y357740D02*
X398670Y361470D01*
Y363220D01*
X384810D02*
X398670D01*
X401200Y115570D02*
Y117570D01*
X494600Y100915D02*
X503180Y92335D01*
X494600Y100915D02*
Y114130D01*
X506358Y118110D02*
Y118622D01*
X468130Y160020D02*
X503324D01*
X455670Y172480D02*
X468130Y160020D01*
X390210Y144460D02*
Y157480D01*
X197113Y392026D02*
X198120D01*
X172720Y367633D02*
X197113Y392026D01*
X222654Y372514D02*
X223520Y373380D01*
X172720Y335280D02*
Y367633D01*
X198120Y372514D02*
X222654D01*
X385210Y133560D02*
Y157480D01*
X378460Y123310D02*
X386200Y115570D01*
X370600Y141510D02*
Y143510D01*
X378460Y123310D02*
Y133650D01*
X370600Y145510D02*
X374080Y148990D01*
X370600Y143510D02*
Y145510D01*
X380210Y152020D02*
Y157480D01*
X377180Y148990D02*
X380210Y152020D01*
X374080Y148990D02*
X377180D01*
X354330Y142240D02*
X355600Y143510D01*
X315200Y142240D02*
X354330D01*
X312820Y144620D02*
X315200Y142240D01*
X312820Y144620D02*
Y146620D01*
X307340Y150100D02*
X309340D01*
X312820Y146620D01*
X308000Y521970D02*
X322580D01*
X424180Y222480D02*
X450210D01*
Y187480D02*
X483508D01*
X450210Y212480D02*
X505460D01*
X450210Y172480D02*
X455670D01*
X554660Y542620D02*
X558800Y538480D01*
X517020Y542620D02*
X554660D01*
X331720Y172480D02*
X365210D01*
X309340Y150100D02*
X331720Y172480D01*
X326720Y182480D02*
X365210D01*
X306566D02*
X326720D01*
X307340Y165100D02*
X309340D01*
X326720Y182480D01*
X353739Y223968D02*
Y238760D01*
X349846D02*
X353739D01*
X306566Y197480D02*
X308566D01*
X349846Y238760D01*
X353739Y203200D02*
Y213360D01*
Y197359D02*
Y203200D01*
X354459Y202480D02*
X365210D01*
X353739Y203200D02*
X354459Y202480D01*
X353739Y197359D02*
X358618Y192480D01*
X365210D01*
X353739Y223968D02*
X355227Y222480D01*
X365210D01*
X353739Y213360D02*
Y223968D01*
Y213360D02*
X354619Y212480D01*
X365210D01*
X390210Y272470D02*
X404108Y286368D01*
X405130D01*
X390210Y242480D02*
Y272470D01*
X430530Y280800D02*
X431670Y281940D01*
X456820D01*
X430210Y264980D02*
X430530Y265300D01*
X430210Y242480D02*
Y264980D01*
X285750Y375920D02*
X287020Y377190D01*
X285750Y350520D02*
Y375920D01*
X273050Y598170D02*
X275799D01*
X280249Y602620D02*
X302260D01*
X275799Y598170D02*
X280249Y602620D01*
X209550Y553720D02*
X268220Y612390D01*
X209550Y518160D02*
Y553720D01*
X268220Y612390D02*
X302030D01*
X339441Y607620D02*
X342691Y610870D01*
X302260Y607620D02*
X339441D01*
X342691Y610870D02*
X345440D01*
X409260Y622620D02*
X409575Y622935D01*
X302260Y622620D02*
X409260D01*
X312420Y368300D02*
Y393081D01*
X313039Y393700D01*
X38100Y190350D02*
X88900Y241150D01*
X225190Y617620D02*
X302260D01*
X88900Y241150D02*
Y481330D01*
X225190Y617620D01*
X85090Y486410D02*
X226300Y627620D01*
X81280Y492760D02*
X221370Y632850D01*
X38100Y279030D02*
X81280Y322210D01*
X38100Y244030D02*
X85090Y291020D01*
X81280Y322210D02*
Y492760D01*
X85090Y291020D02*
Y486410D01*
X226300Y627620D02*
X302260D01*
X221370Y632850D02*
X302030D01*
X302260Y632620D01*
X74930Y350860D02*
Y495300D01*
X217620Y637990D01*
X302260D01*
X294667Y641800D02*
X295257Y642390D01*
X71120Y498892D02*
X214028Y641800D01*
X294667D01*
X295257Y642390D02*
X302030D01*
X302260Y642620D01*
X38100Y314030D02*
X74930Y350860D01*
X71120Y382050D02*
Y498892D01*
X210430Y648580D02*
X295425D01*
X67310Y411480D02*
Y505460D01*
X210430Y648580D01*
X38100Y349030D02*
X71120Y382050D01*
X59690Y509578D02*
X208102Y657990D01*
X59690Y467578D02*
Y509578D01*
X63500Y444430D02*
Y508000D01*
X38100Y419030D02*
X63500Y444430D01*
X55880Y534670D02*
X210820Y689610D01*
X58946Y466834D02*
X59690Y467578D01*
X63500Y508000D02*
X208490Y652990D01*
X46748Y474738D02*
X55880Y483870D01*
Y534670D01*
X38100Y382270D02*
X67310Y411480D01*
X208490Y652990D02*
X232620D01*
X208102Y657990D02*
X302260D01*
X296385Y647620D02*
X302260D01*
X295425Y648580D02*
X296385Y647620D01*
X232620Y652990D02*
X232620Y652990D01*
X302260D01*
X39588Y451970D02*
X42916Y453057D01*
X38100Y435350D02*
Y449825D01*
X38100Y450482D02*
X39588Y451970D01*
X38100Y449825D02*
X38100Y450482D01*
X42284Y470350D02*
X46672Y474738D01*
X38100Y470350D02*
X42284D01*
X46672Y474738D02*
X46748D01*
X38100Y505350D02*
Y522278D01*
X209242Y693420D01*
X210820Y689610D02*
X259734D01*
X209242Y693420D02*
X261312D01*
X277112Y677620D01*
X302260D01*
X259734Y689610D02*
X275764Y673580D01*
X294667D01*
X294667Y673580D02*
X295425D01*
X294667Y673580D02*
X294667Y673580D01*
X295425D02*
X296385Y672620D01*
X302260D01*
X111760Y631190D02*
Y654050D01*
X38100Y557530D02*
X111760Y631190D01*
X38100Y540350D02*
Y557530D01*
X154940Y697230D02*
X262890D01*
X111760Y654050D02*
X154940Y697230D01*
X277500Y682620D02*
X302260D01*
X262890Y697230D02*
X277500Y682620D01*
X101410Y708660D02*
X267624D01*
X294951Y687850D02*
X296155D01*
X296385Y687620D01*
X278664Y697620D02*
X302030D01*
X279053Y702620D02*
X302260D01*
X302030Y697620D02*
X302260Y697850D01*
X294221Y688580D02*
X294951Y687850D01*
X132600Y704850D02*
X266046D01*
X278276Y692620D01*
X302260D01*
X264468Y701040D02*
X276928Y688580D01*
X294221D01*
X269203Y712470D02*
X279053Y702620D01*
X151130Y701040D02*
X264468D01*
X267624Y708660D02*
X278664Y697620D01*
X99832Y712470D02*
X269203D01*
X38100Y588010D02*
X151130Y701040D01*
X38100Y610350D02*
X132600Y704850D01*
X97292Y709930D02*
X99832Y712470D01*
X38100Y645350D02*
X101410Y708660D01*
X98254Y716280D02*
X271953D01*
X97324Y715350D02*
X98254Y716280D01*
X271953D02*
X280243Y707990D01*
X296385Y687620D02*
X302260D01*
X38100Y575350D02*
Y588010D01*
X67680Y709930D02*
X97292D01*
X38100Y715350D02*
X97324D01*
X38100Y680350D02*
X67680Y709930D01*
X280243Y707990D02*
X302260D01*
X414692Y532655D02*
X424692D01*
X426910Y530437D01*
Y522970D02*
X427140Y522740D01*
X426910Y522970D02*
Y530437D01*
X349692Y532655D02*
X414692D01*
X416910Y530437D01*
Y522970D02*
Y530437D01*
Y522970D02*
X417140Y522740D01*
X308000Y521970D02*
X318685Y532655D01*
X349692D01*
X351910Y530437D01*
Y522970D02*
Y530437D01*
Y522970D02*
X352140Y522740D01*
X287350Y542620D02*
X308000Y521970D01*
X322140Y522410D02*
X322580Y521970D01*
X322140Y522410D02*
Y522740D01*
X534602Y717618D02*
X534670Y717550D01*
X517020Y712620D02*
X533182D01*
X532130Y734060D02*
X534074Y732116D01*
Y728020D02*
X534602Y727492D01*
X534074Y728020D02*
Y732116D01*
X534670Y714108D02*
Y717550D01*
X533182Y712620D02*
X534670Y714108D01*
X534602Y717618D02*
Y727492D01*
X506730Y642620D02*
Y690443D01*
Y589108D02*
Y642620D01*
X517020D01*
X506730Y589108D02*
X508218Y587620D01*
X517020D01*
X499110Y476250D02*
X509270D01*
X497140Y478220D02*
X499110Y476250D01*
X492140Y483220D02*
X497140Y478220D01*
Y522740D01*
X492140Y483220D02*
Y522740D01*
X506730Y727585D02*
X512955D01*
X487680D02*
X506730D01*
Y690443D02*
X509323Y687850D01*
X516790D01*
X506730Y690443D02*
Y727585D01*
X516790Y687850D02*
X517020Y687620D01*
X439588Y727585D02*
X454588D01*
X437370Y729803D02*
X439588Y727585D01*
X437370Y729803D02*
Y737270D01*
X437140Y737500D02*
X437370Y737270D01*
X296155Y577390D02*
X302030D01*
X295425Y576660D02*
X296155Y577390D01*
X186690Y452120D02*
Y469517D01*
X293833Y576660D01*
X302030Y577390D02*
X302260Y577620D01*
X293833Y576660D02*
X294667D01*
X294667Y576660D01*
X295425D01*
X186690Y452120D02*
X287190Y552620D01*
X181610Y447040D02*
X186690Y452120D01*
X293510Y718820D02*
Y731520D01*
Y714360D02*
Y718820D01*
X294480Y717850D02*
X302030D01*
X293510Y718820D02*
X294480Y717850D01*
X302030D02*
X302260Y717620D01*
X293510Y714360D02*
X295020Y712850D01*
X293510Y731520D02*
X297445Y727585D01*
X295020Y712850D02*
X302030D01*
X302260Y712620D01*
X332445Y654050D02*
X332740D01*
X323876Y662620D02*
X332445Y654050D01*
X302260Y662620D02*
X323876D01*
X297445Y727585D02*
X329692D01*
X454588D02*
X487680D01*
X487370Y727895D02*
X487680Y727585D01*
X487140Y737500D02*
X487370Y737270D01*
Y727895D02*
Y737270D01*
X526479Y741109D02*
X532130Y735458D01*
X517018Y750570D02*
X526479Y741109D01*
X452370Y729803D02*
Y737270D01*
Y729803D02*
X454588Y727585D01*
X512955D02*
X526479Y741109D01*
X452140Y737500D02*
X452370Y737270D01*
X359692Y727585D02*
X379692D01*
X381910Y729803D01*
Y737270D01*
X382140Y737500D01*
X359692Y727585D02*
X361910Y729803D01*
Y737270D01*
X362140Y737500D01*
X329692Y727585D02*
X359692D01*
X329692D02*
X331910Y729803D01*
Y737270D01*
X332140Y737500D01*
X328628Y754380D02*
X336550D01*
X327140Y737500D02*
Y752892D01*
X328628Y754380D01*
X522895Y717620D02*
X530186Y724911D01*
Y732116D01*
X517020Y717620D02*
X522895D01*
X530186Y732116D02*
X532130Y734060D01*
Y735458D01*
X499110Y750570D02*
X517018D01*
X497140Y737500D02*
X497225Y737585D01*
Y748685D01*
X499110Y750570D01*
X262302Y377190D02*
X268003D01*
X181610Y447040D02*
Y490220D01*
X209550Y518160D01*
X302030Y612390D02*
X302260Y612620D01*
X181610Y441960D02*
Y447040D01*
X287190Y552620D02*
X302260D01*
X181610Y441960D02*
X287270Y547620D01*
X181610Y436880D02*
Y441960D01*
X287270Y547620D02*
X302260D01*
X181610Y436880D02*
X287350Y542620D01*
X177800Y433070D02*
X181610Y436880D01*
X287350Y542620D02*
X302260D01*
X177800Y433070D02*
Y499110D01*
Y412346D02*
Y433070D01*
X316215Y749300D02*
X322140Y743375D01*
X287219Y738069D02*
X298450Y749300D01*
X316215D01*
X287219Y737009D02*
Y738069D01*
X322140Y737500D02*
Y743375D01*
X284480Y731520D02*
X293510D01*
X177800Y499110D02*
X199468Y520778D01*
X191609Y397531D02*
X197113Y392026D01*
X191609Y397531D02*
Y398537D01*
X177800Y412346D02*
X191609Y398537D01*
X327140Y494030D02*
Y522740D01*
X288362Y494030D02*
X327140D01*
X276860Y483066D02*
X277397D01*
X288362Y494030D01*
X276322Y463550D02*
X276860D01*
X256194Y443421D02*
X276322Y463550D01*
X229875Y443421D02*
X256194D01*
X253740Y421640D02*
Y422029D01*
X250510Y425259D02*
X253740Y422029D01*
X236723Y425259D02*
X250510D01*
X233299Y428683D02*
Y439997D01*
X229875Y443421D02*
X233299Y439997D01*
Y428683D02*
X236723Y425259D01*
X209051Y443421D02*
X229875D01*
X198120Y432490D02*
X209051Y443421D01*
X198120Y392026D02*
Y423490D01*
X256588Y381329D02*
Y386553D01*
X244757Y375285D02*
X250543D01*
X256588Y386553D02*
X263734Y393700D01*
X236140Y383902D02*
X244757Y375285D01*
X263734Y393700D02*
X294021D01*
X239369Y375285D02*
X243179Y371475D01*
X250543Y375285D02*
X256588Y381329D01*
X255931Y375285D02*
X260397D01*
X238125D02*
X239369D01*
X243179Y371475D02*
X252121D01*
X236140Y383902D02*
Y392170D01*
X252121Y371475D02*
X255931Y375285D01*
X260397D02*
X262302Y377190D01*
X241370Y391440D02*
X241870D01*
X246435Y383485D02*
X247650Y382270D01*
X241140Y391670D02*
X241370Y391440D01*
X241870D02*
X246435Y386875D01*
Y383485D02*
Y386875D01*
X231140Y382270D02*
Y392170D01*
Y382270D02*
X238125Y375285D01*
X318770Y407670D02*
X327140Y399300D01*
X336550Y389890D01*
X241140Y407670D02*
X318770D01*
X336550Y389890D02*
X346710D01*
X241140Y391670D02*
Y392170D01*
X231160Y407690D02*
Y409532D01*
X243268Y421640D02*
X253740D01*
X231160Y409532D02*
X243268Y421640D01*
X231140Y407670D02*
X231160Y407690D01*
X224790Y409520D02*
Y434340D01*
Y409520D02*
X226140Y408170D01*
Y407670D02*
Y408170D01*
X198120Y392026D02*
X202796Y387350D01*
X221320D02*
X226140Y392170D01*
X202796Y387350D02*
X221320D01*
X236120Y407650D02*
X236140Y407670D01*
X226140Y399920D02*
X226620Y400400D01*
X230712D01*
X236120Y405808D01*
Y407650D01*
X236140Y407670D02*
X241140D01*
X490220Y754072D02*
Y754380D01*
Y754072D02*
X492140Y752152D01*
Y737500D02*
Y752152D01*
X490220Y754380D02*
X562392D01*
X482600D02*
X490220D01*
X477520D02*
X482600D01*
X482140Y737500D02*
Y753920D01*
X482600Y754380D01*
X472440D02*
X477520D01*
X477140Y737500D02*
Y754000D01*
X477520Y754380D01*
X467360D02*
X472440D01*
X472140Y737500D02*
Y754080D01*
X472440Y754380D01*
X462280D02*
X467360D01*
X467140Y737500D02*
Y754160D01*
X467360Y754380D01*
X457200D02*
X462280D01*
X462140Y737500D02*
Y754240D01*
X462280Y754380D01*
X447040D02*
X457200D01*
X457140Y754320D02*
X457200Y754380D01*
X457140Y737500D02*
Y754320D01*
X440690Y754380D02*
X447040D01*
X447140Y737500D02*
Y754280D01*
X447040Y754380D02*
X447140Y754280D01*
X433070Y754380D02*
X440690D01*
X442140Y737500D02*
Y752930D01*
X440690Y754380D02*
X442140Y752930D01*
X432140Y737500D02*
Y753450D01*
X433070Y754380D01*
X421640D02*
X427990D01*
X427140Y753530D02*
X427990Y754380D01*
X427140Y737500D02*
Y753530D01*
X417830Y754380D02*
X421640D01*
X422140Y753880D01*
Y737500D02*
Y753880D01*
X411480Y754380D02*
X417830D01*
X417140Y753690D02*
X417830Y754380D01*
X417140Y737500D02*
Y753690D01*
X407670Y754380D02*
X411480D01*
X412140Y753720D01*
Y737500D02*
Y753720D01*
X402590Y754380D02*
X407670D01*
X407140Y753850D02*
X407670Y754380D01*
X407140Y737500D02*
Y753850D01*
X402140Y737500D02*
Y753930D01*
X402590Y754380D01*
X392430D02*
X396240D01*
X397140Y737500D02*
Y753480D01*
X396240Y754380D02*
X397140Y753480D01*
X387350Y754380D02*
X392430D01*
X392140Y737500D02*
Y754090D01*
X392430Y754380D01*
X377190D02*
X387350D01*
X387140Y754170D02*
X387350Y754380D01*
X387140Y737500D02*
Y754170D01*
X372110Y754380D02*
X377190D01*
X377140Y737500D02*
Y754330D01*
X377190Y754380D01*
X367030D02*
X372110D01*
X372140Y754350D01*
Y737500D02*
Y754350D01*
X356870Y754380D02*
X367030D01*
X367140Y754270D01*
Y737500D02*
Y754270D01*
X351790Y754380D02*
X356870D01*
X357140Y754110D01*
Y737500D02*
Y754110D01*
X346710Y754380D02*
X351790D01*
X352140Y754030D01*
Y737500D02*
Y754030D01*
X341630Y754380D02*
X346710D01*
X347140Y753950D01*
Y737500D02*
Y753950D01*
X336550Y754380D02*
X341630D01*
X342140Y753870D01*
Y737500D02*
Y753870D01*
X337140Y737500D02*
Y753790D01*
X336550Y754380D02*
X337140Y753790D01*
X563880Y707390D02*
Y752892D01*
X562392Y754380D02*
X563880Y752892D01*
X469890Y562620D02*
X473710Y558800D01*
X302260Y557620D02*
X472530D01*
X473710Y558800D01*
X463550Y568960D02*
X469890Y562620D01*
X302260D02*
X469890D01*
X459105Y573405D02*
X463550Y568960D01*
X462210Y567620D02*
X463550Y568960D01*
X302260Y567620D02*
X462210D01*
X449580Y582930D02*
X459105Y573405D01*
X302260Y572620D02*
X458320D01*
X459105Y573405D01*
X444500Y588010D02*
X449580Y582930D01*
X449270Y582620D02*
X449580Y582930D01*
X302260Y582620D02*
X449270D01*
X439420Y593090D02*
X444500Y588010D01*
X302260Y587620D02*
X444110D01*
X444500Y588010D01*
X433705Y598805D02*
X439420Y593090D01*
X438950Y592620D02*
X439420Y593090D01*
X302260Y592620D02*
X438950D01*
X409575Y622935D02*
X433705Y598805D01*
X432520Y597620D02*
X433705Y598805D01*
X302260Y597620D02*
X432520D01*
X364890Y667620D02*
X409575Y622935D01*
X302260Y667620D02*
X364890D01*
X496570Y389890D02*
Y410210D01*
X477140Y429640D02*
X496570Y410210D01*
X491490Y389890D02*
X496570D01*
X487680D02*
X491490D01*
X472140Y428290D02*
X491490Y408940D01*
Y389890D02*
Y408940D01*
X483870Y389890D02*
X487680D01*
X467140Y425670D02*
X487680Y405130D01*
Y389890D02*
Y405130D01*
X487140Y431070D02*
Y522740D01*
X482140Y429720D02*
Y522740D01*
X477140Y429640D02*
Y522740D01*
X472140Y428290D02*
Y522740D01*
X467140Y425670D02*
Y522740D01*
X474980Y389890D02*
X483870D01*
Y403860D01*
X462140Y425590D02*
Y522740D01*
Y425590D02*
X483870Y403860D01*
X474980Y389890D02*
Y403860D01*
X452140Y426700D02*
X474980Y403860D01*
X471170Y389890D02*
X474980D01*
X452140Y426700D02*
Y522740D01*
X467360Y389890D02*
X471170D01*
Y401320D01*
X447140Y425350D02*
Y522740D01*
Y425350D02*
X471170Y401320D01*
X467360Y389890D02*
Y400050D01*
X442140Y425270D02*
Y522740D01*
Y425270D02*
X467360Y400050D01*
X455930Y389890D02*
X461010D01*
X462280Y391160D01*
Y400050D01*
X437140Y425190D02*
X462280Y400050D01*
X437140Y425190D02*
Y522740D01*
X449580Y389890D02*
X455930D01*
Y398780D01*
X432140Y422570D02*
X455930Y398780D01*
X432140Y422570D02*
Y522740D01*
X444500Y389890D02*
X449580D01*
Y398780D01*
X422140Y426220D02*
Y522740D01*
Y426220D02*
X449580Y398780D01*
X440690Y389890D02*
X444500D01*
Y397510D01*
X412140Y429870D02*
Y522740D01*
Y429870D02*
X444500Y397510D01*
X436880Y389890D02*
X440690D01*
X407140Y429790D02*
X440690Y396240D01*
Y389890D02*
Y396240D01*
X407140Y429790D02*
Y522740D01*
X402140Y429710D02*
Y522740D01*
X436880Y389890D02*
Y394970D01*
X402140Y429710D02*
X436880Y394970D01*
X433070Y389890D02*
X436880D01*
X431800Y391160D02*
Y393700D01*
X397140Y428360D02*
X431800Y393700D01*
Y391160D02*
X433070Y389890D01*
X397140Y428360D02*
Y522740D01*
X421640Y389890D02*
X427990D01*
X392140Y425740D02*
X427990Y389890D01*
X392140Y425740D02*
Y522740D01*
X387140Y424390D02*
X421640Y389890D01*
X412750D02*
X421640D01*
X387140Y424390D02*
Y522740D01*
X407670Y389890D02*
X412750D01*
X382140Y420500D02*
X412750Y389890D01*
X382140Y420500D02*
Y522740D01*
X377140Y420420D02*
X407670Y389890D01*
X401320D02*
X407670D01*
X377140Y420420D02*
Y522740D01*
X393700Y389890D02*
X401320D01*
X372140Y419070D02*
X401320Y389890D01*
X372140Y419070D02*
Y522740D01*
X384810Y389890D02*
X393700D01*
X367140Y416450D02*
Y522740D01*
Y416450D02*
X393700Y389890D01*
X378460D02*
X384810D01*
X362140Y412560D02*
Y522740D01*
Y412560D02*
X384810Y389890D01*
X369570D02*
X378460D01*
X357140Y411210D02*
Y522740D01*
Y411210D02*
X378460Y389890D01*
X359410D02*
X369570D01*
X347140Y412320D02*
Y522740D01*
Y412320D02*
X369570Y389890D01*
X353060D02*
X359410D01*
X342140Y407160D02*
Y522740D01*
Y407160D02*
X359410Y389890D01*
X346710D02*
X353060D01*
X337140Y405810D02*
X353060Y389890D01*
X337140Y405810D02*
Y522740D01*
X332140Y404460D02*
X346710Y389890D01*
X332140Y404460D02*
Y522740D01*
X659130Y547370D02*
Y552450D01*
X517020Y547620D02*
X658880D01*
X659130Y547370D01*
Y552450D02*
Y557530D01*
X517020Y552620D02*
X658960D01*
X659130Y552450D01*
Y557530D02*
Y562610D01*
X517110Y557530D02*
X659130D01*
X517020Y557620D02*
X517110Y557530D01*
X659130Y562610D02*
Y567690D01*
X659120Y562620D02*
X659130Y562610D01*
X517020Y562620D02*
X659120D01*
X659130Y567690D02*
Y572770D01*
X659060Y567620D02*
X659130Y567690D01*
X517020Y567620D02*
X659060D01*
X659130Y572770D02*
Y577850D01*
X658980Y572620D02*
X659130Y572770D01*
X517020Y572620D02*
X658980D01*
X659130Y577850D02*
Y582930D01*
X517020Y577620D02*
X658900D01*
X659130Y577850D01*
Y582930D02*
Y591820D01*
X658820Y582620D02*
X659130Y582930D01*
X517020Y582620D02*
X658820D01*
X659130Y591820D02*
Y598170D01*
X658330Y592620D02*
X659130Y591820D01*
X517020Y592620D02*
X658330D01*
X659130Y598170D02*
Y603250D01*
X517020Y597620D02*
X658580D01*
X659130Y598170D01*
Y603250D02*
Y607060D01*
X517020Y602620D02*
X658500D01*
X659130Y603250D01*
Y607060D02*
Y612140D01*
X658570Y607620D02*
X659130Y607060D01*
X517020Y607620D02*
X658570D01*
X653415Y617855D02*
X658650Y612620D01*
X659130Y612140D01*
X517020Y612620D02*
X658650D01*
X647700Y623570D02*
X653415Y617855D01*
X653180Y617620D02*
X653415Y617855D01*
X517020Y617620D02*
X653180D01*
X643255Y628015D02*
X647700Y623570D01*
X646750Y622620D02*
X647700Y623570D01*
X517020Y622620D02*
X646750D01*
X638175Y633095D02*
X643255Y628015D01*
X517020Y627620D02*
X642860D01*
X643255Y628015D01*
X633650Y637620D02*
X638175Y633095D01*
X517020Y632620D02*
X637700D01*
X638175Y633095D01*
X622300Y648970D02*
X633650Y637620D01*
X517020D02*
X633650D01*
X617855Y653415D02*
X622300Y648970D01*
X517020Y647620D02*
X620950D01*
X622300Y648970D01*
X612775Y658495D02*
X617855Y653415D01*
X517020Y652620D02*
X617060D01*
X617855Y653415D01*
X608330Y662940D02*
X612775Y658495D01*
X611900Y657620D02*
X612775Y658495D01*
X517020Y657620D02*
X611900D01*
X603250Y668020D02*
X608330Y662940D01*
X517020Y662620D02*
X608010D01*
X608330Y662940D01*
X598170Y673100D02*
X603250Y668020D01*
X517020Y667620D02*
X602850D01*
X603250Y668020D01*
X593090Y678180D02*
X598170Y673100D01*
X517020Y672620D02*
X597690D01*
X598170Y673100D01*
X588010Y683260D02*
X593090Y678180D01*
X517020Y677620D02*
X592530D01*
X593090Y678180D01*
X517020Y692620D02*
X578650D01*
X588010Y683260D01*
X572770Y698500D02*
X578650Y692620D01*
X587370Y682620D02*
X588010Y683260D01*
X517020Y682620D02*
X587370D01*
X568650Y702620D02*
X572770Y698500D01*
X571890Y697620D02*
X572770Y698500D01*
X517020Y697620D02*
X571890D01*
X563880Y707390D02*
X568650Y702620D01*
X517020D02*
X568650D01*
X38100Y225350D02*
Y244030D01*
Y260350D02*
Y279030D01*
Y295350D02*
Y314030D01*
Y330350D02*
Y349030D01*
Y365350D02*
Y382270D01*
Y400350D02*
Y419030D01*
D15*
X385210Y157480D02*
D03*
X400210Y242480D02*
D03*
X405210D02*
D03*
X390210D02*
D03*
X415210D02*
D03*
X435210D02*
D03*
X430210D02*
D03*
X410210D02*
D03*
X425210D02*
D03*
X420210D02*
D03*
X395210D02*
D03*
X385210D02*
D03*
X390210Y157480D02*
D03*
X410210D02*
D03*
X395210D02*
D03*
X405210D02*
D03*
X400210D02*
D03*
X420210D02*
D03*
X415210D02*
D03*
X380210Y242480D02*
D03*
X435210Y157480D02*
D03*
X430210D02*
D03*
X425210D02*
D03*
X380210D02*
D03*
D16*
X365210Y172480D02*
D03*
Y212480D02*
D03*
Y207480D02*
D03*
X450210Y227480D02*
D03*
Y222480D02*
D03*
Y172480D02*
D03*
Y177480D02*
D03*
Y182480D02*
D03*
Y187480D02*
D03*
Y192480D02*
D03*
Y197480D02*
D03*
Y202480D02*
D03*
Y207480D02*
D03*
Y212480D02*
D03*
Y217480D02*
D03*
X365210Y177480D02*
D03*
Y187480D02*
D03*
Y182480D02*
D03*
Y192480D02*
D03*
Y202480D02*
D03*
Y197480D02*
D03*
Y217480D02*
D03*
Y222480D02*
D03*
Y227480D02*
D03*
D17*
X406180Y49530D02*
D03*
X424180D02*
D03*
X416670Y363220D02*
D03*
X398670D02*
D03*
X443120Y29210D02*
D03*
X461120D02*
D03*
X401430Y80010D02*
D03*
X383430D02*
D03*
X370950Y114300D02*
D03*
X352950D02*
D03*
X460900Y341630D02*
D03*
X478900D02*
D03*
D18*
X504190Y27940D02*
D03*
X484674D02*
D03*
D19*
X522836Y160020D02*
D03*
X503324D02*
D03*
X562206Y191770D02*
D03*
X542693D02*
D03*
D20*
X456820Y281940D02*
D03*
X464820D02*
D03*
D21*
X506358Y118110D02*
D03*
X524882D02*
D03*
D22*
X472180Y81280D02*
D03*
X503180D02*
D03*
X284740Y421640D02*
D03*
X253740D02*
D03*
D23*
X355600Y143510D02*
D03*
X370600D02*
D03*
X369810Y363220D02*
D03*
X384810D02*
D03*
X447160Y116840D02*
D03*
X462160D02*
D03*
X432950Y115570D02*
D03*
X417950D02*
D03*
X386200D02*
D03*
X401200D02*
D03*
D24*
X275590Y148480D02*
D03*
Y166480D02*
D03*
Y181500D02*
D03*
Y199500D02*
D03*
D25*
X367030Y263360D02*
D03*
Y276860D02*
D03*
D26*
X405130Y302912D02*
D03*
Y286368D02*
D03*
D27*
X391160Y34170D02*
D03*
Y19170D02*
D03*
X307340Y165100D02*
D03*
Y150100D02*
D03*
X306566Y182480D02*
D03*
Y197480D02*
D03*
D28*
X490620Y118110D02*
D03*
X477120D02*
D03*
D29*
X198120Y392026D02*
D03*
Y372514D02*
D03*
X505460Y193847D02*
D03*
Y213360D02*
D03*
D30*
X382270Y293370D02*
D03*
Y301370D02*
D03*
D31*
X268003Y377190D02*
D03*
X287020D02*
D03*
X294021Y393700D02*
D03*
X313039D02*
D03*
D32*
X276860Y483066D02*
D03*
Y463550D02*
D03*
X528320Y83820D02*
D03*
Y64304D02*
D03*
X516890Y291634D02*
D03*
Y311150D02*
D03*
D33*
X226140Y399920D02*
D03*
X241140D02*
D03*
D34*
Y407670D02*
D03*
X226140D02*
D03*
Y392170D02*
D03*
X241140D02*
D03*
D35*
X236140Y407670D02*
D03*
X231140D02*
D03*
Y392170D02*
D03*
X236140D02*
D03*
D36*
X302260Y717620D02*
D03*
X517020D02*
D03*
Y712620D02*
D03*
Y707620D02*
D03*
Y702620D02*
D03*
Y697620D02*
D03*
Y692620D02*
D03*
Y687620D02*
D03*
Y682620D02*
D03*
Y677620D02*
D03*
Y672620D02*
D03*
Y667620D02*
D03*
Y662620D02*
D03*
Y657620D02*
D03*
Y652620D02*
D03*
Y647620D02*
D03*
Y642620D02*
D03*
Y637620D02*
D03*
Y632620D02*
D03*
Y627620D02*
D03*
Y622620D02*
D03*
Y617620D02*
D03*
Y612620D02*
D03*
Y607620D02*
D03*
Y602620D02*
D03*
Y597620D02*
D03*
Y592620D02*
D03*
Y587620D02*
D03*
Y582620D02*
D03*
Y577620D02*
D03*
Y572620D02*
D03*
Y567620D02*
D03*
Y562620D02*
D03*
Y557620D02*
D03*
Y552620D02*
D03*
Y547620D02*
D03*
Y542620D02*
D03*
X302260D02*
D03*
Y547620D02*
D03*
Y552620D02*
D03*
Y557620D02*
D03*
Y562620D02*
D03*
Y567620D02*
D03*
Y572620D02*
D03*
Y577620D02*
D03*
Y582620D02*
D03*
Y587620D02*
D03*
Y592620D02*
D03*
Y597620D02*
D03*
Y602620D02*
D03*
Y607620D02*
D03*
Y612620D02*
D03*
Y617620D02*
D03*
Y622620D02*
D03*
Y627620D02*
D03*
Y632620D02*
D03*
Y637620D02*
D03*
Y642620D02*
D03*
Y647620D02*
D03*
Y652620D02*
D03*
Y657620D02*
D03*
Y662620D02*
D03*
Y667620D02*
D03*
Y672620D02*
D03*
Y677620D02*
D03*
Y682620D02*
D03*
Y687620D02*
D03*
Y692620D02*
D03*
Y697620D02*
D03*
Y702620D02*
D03*
Y707620D02*
D03*
Y712620D02*
D03*
D37*
X322140Y737500D02*
D03*
X327140D02*
D03*
X332140D02*
D03*
X337140D02*
D03*
X342140D02*
D03*
X347140D02*
D03*
X352140D02*
D03*
X357140D02*
D03*
X362140D02*
D03*
X367140D02*
D03*
X372140D02*
D03*
X377140D02*
D03*
X382140D02*
D03*
X387140D02*
D03*
X392140D02*
D03*
X397140D02*
D03*
X402140D02*
D03*
X407140D02*
D03*
X412140D02*
D03*
X417140D02*
D03*
X422140D02*
D03*
X427140D02*
D03*
X432140D02*
D03*
X437140D02*
D03*
X442140D02*
D03*
X447140D02*
D03*
X452140D02*
D03*
X457140D02*
D03*
X462140D02*
D03*
X467140D02*
D03*
X472140D02*
D03*
X477140D02*
D03*
X482140D02*
D03*
X487140D02*
D03*
X492140D02*
D03*
X497140D02*
D03*
Y522740D02*
D03*
X492140D02*
D03*
X487140D02*
D03*
X482140D02*
D03*
X477140D02*
D03*
X472140D02*
D03*
X467140D02*
D03*
X462140D02*
D03*
X457140D02*
D03*
X452140D02*
D03*
X447140D02*
D03*
X442140D02*
D03*
X437140D02*
D03*
X432140D02*
D03*
X427140D02*
D03*
X422140D02*
D03*
X417140D02*
D03*
X412140D02*
D03*
X407140D02*
D03*
X402140D02*
D03*
X397140D02*
D03*
X392140D02*
D03*
X387140D02*
D03*
X382140D02*
D03*
X377140D02*
D03*
X372140D02*
D03*
X367140D02*
D03*
X362140D02*
D03*
X357140D02*
D03*
X352140D02*
D03*
X347140D02*
D03*
X342140D02*
D03*
X337140D02*
D03*
X332140D02*
D03*
X327140D02*
D03*
X322140D02*
D03*
D38*
X198120Y432490D02*
D03*
Y423490D02*
D03*
D39*
X585470Y43900D02*
D03*
Y70400D02*
D03*
D40*
X241807Y434340D02*
D03*
X224790D02*
D03*
D41*
X430530Y280800D02*
D03*
Y265300D02*
D03*
D65*
X712470Y80010D02*
D03*
X662470Y118110D02*
D03*
Y194310D02*
D03*
Y270510D02*
D03*
X712470Y308610D02*
D03*
Y232410D02*
D03*
Y156210D02*
D03*
X662470Y41910D02*
D03*
D66*
Y346710D02*
D03*
D67*
X38100Y190350D02*
D03*
D68*
Y225350D02*
D03*
Y260350D02*
D03*
Y295350D02*
D03*
Y330350D02*
D03*
Y365350D02*
D03*
Y400350D02*
D03*
Y435350D02*
D03*
Y470350D02*
D03*
Y505350D02*
D03*
Y540350D02*
D03*
Y575350D02*
D03*
Y610350D02*
D03*
Y645350D02*
D03*
Y680350D02*
D03*
Y715350D02*
D03*
D69*
X553720Y266450D02*
D03*
D70*
Y330450D02*
D03*
D71*
X364490Y78740D02*
D03*
X424070Y31750D02*
D03*
X391160Y62230D02*
D03*
X438040Y68580D02*
D03*
X346710Y26670D02*
D03*
X582930Y193040D02*
D03*
X548640Y153670D02*
D03*
X463550Y134620D02*
D03*
X478790Y281940D02*
D03*
X383540Y314960D02*
D03*
X247650Y170180D02*
D03*
X621231Y164653D02*
D03*
X612140Y175260D02*
D03*
X626110Y135890D02*
D03*
X334010Y113030D02*
D03*
X623570Y116840D02*
D03*
X624840Y81280D02*
D03*
X443230Y339090D02*
D03*
X345440Y355600D02*
D03*
X283210Y217170D02*
D03*
X172720Y335280D02*
D03*
X421640Y222250D02*
D03*
X560070Y535940D02*
D03*
X285750Y350520D02*
D03*
X273050Y598170D02*
D03*
X345440Y610870D02*
D03*
X312420Y368300D02*
D03*
X509270Y476250D02*
D03*
X332740Y654050D02*
D03*
X532130Y734060D02*
D03*
X284480Y731520D02*
D03*
X199468Y520778D02*
D03*
D72*
X365760Y252330D02*
D03*
D73*
X223520Y373380D02*
D03*
X247650Y382270D02*
D03*
M02*
