M48
;Layer_Color=9474304
;FILE_FORMAT=4:4
METRIC,LZ
;TYPE=PLATED
T01F00S00C0.3810
T02F00S00C0.7112
T03F00S00C0.8500
T04F00S00C1.0000
T05F00S00C1.3000
%
T01
X0022352Y0037338
X0024765Y0038227
T02
X0034671Y0002667
X0036449Y0007874
X0039116Y0006223
X0043804Y0006858
X0042407Y0003175
X0046355Y0013462
X0033401Y0011303
X0062357Y0011684
X0062611Y0013589
X0062484Y0008128
X00621231Y00164653
X0061214Y0017526
X0058293Y0019304
X0054864Y0015367
X0056007Y0053594
X0050927Y0047625
X0044323Y0033909
X0038354Y0031496
X0034544Y003556
X0031242Y003683
X0028575Y0035052
X0017272Y0033528
X00199468Y00520778
X0028321Y0021717
X0024765Y0017018
X0036576Y0025233
X0042164Y0022225
X0047879Y0028194
X0034544Y0061087
X0033274Y0065405
X0027305Y0059817
X0028448Y0073152
X0053213Y0073406
T03
X0055372Y0026645
Y0033045
T04
X0066247Y0004191
Y0011811
X0071247Y0008001
Y0015621
Y0023241
Y0030861
X0066247Y0027051
Y0019431
Y0034671
T05
X000381Y0019035
Y0022535
Y0026035
Y0029535
Y0033035
Y0036535
Y0040035
Y0043535
Y0047035
Y0050535
Y0054035
Y0057535
Y0061035
Y0064535
Y0068035
Y0071535
M30
