G04*
G04 #@! TF.GenerationSoftware,Altium Limited,Altium Designer,24.10.1 (45)*
G04*
G04 Layer_Color=16711935*
%FSLAX44Y44*%
%MOMM*%
G71*
G04*
G04 #@! TF.SameCoordinates,DF843893-4558-481A-A0A7-994FBF74EE7B*
G04*
G04*
G04 #@! TF.FilePolarity,Negative*
G04*
G01*
G75*
%ADD56C,1.7032*%
G04:AMPARAMS|DCode=57|XSize=1.7032mm|YSize=1.7032mm|CornerRadius=0.4766mm|HoleSize=0mm|Usage=FLASHONLY|Rotation=90.000|XOffset=0mm|YOffset=0mm|HoleType=Round|Shape=RoundedRectangle|*
%AMROUNDEDRECTD57*
21,1,1.7032,0.7500,0,0,90.0*
21,1,0.7500,1.7032,0,0,90.0*
1,1,0.9532,0.3750,0.3750*
1,1,0.9532,0.3750,-0.3750*
1,1,0.9532,-0.3750,-0.3750*
1,1,0.9532,-0.3750,0.3750*
%
%ADD57ROUNDEDRECTD57*%
%ADD58R,2.0032X2.0032*%
%ADD59C,2.0032*%
%ADD60R,1.5532X1.5532*%
%ADD61C,1.5532*%
%ADD62C,1.4732*%
%ADD63C,1.1176*%
%ADD64C,1.0922*%
D56*
X712470Y80010D02*
D03*
X662470Y118110D02*
D03*
Y194310D02*
D03*
Y270510D02*
D03*
X712470Y308610D02*
D03*
Y232410D02*
D03*
Y156210D02*
D03*
X662470Y41910D02*
D03*
D57*
Y346710D02*
D03*
D58*
X38100Y190350D02*
D03*
D59*
Y225350D02*
D03*
Y260350D02*
D03*
Y295350D02*
D03*
Y330350D02*
D03*
Y365350D02*
D03*
Y400350D02*
D03*
Y435350D02*
D03*
Y470350D02*
D03*
Y505350D02*
D03*
Y540350D02*
D03*
Y575350D02*
D03*
Y610350D02*
D03*
Y645350D02*
D03*
Y680350D02*
D03*
Y715350D02*
D03*
D60*
X553720Y266450D02*
D03*
D61*
Y330450D02*
D03*
D62*
X364490Y78740D02*
D03*
X424070Y31750D02*
D03*
X391160Y62230D02*
D03*
X438040Y68580D02*
D03*
X346710Y26670D02*
D03*
X582930Y193040D02*
D03*
X548640Y153670D02*
D03*
X463550Y134620D02*
D03*
X478790Y281940D02*
D03*
X383540Y314960D02*
D03*
X247650Y170180D02*
D03*
X621231Y164653D02*
D03*
X612140Y175260D02*
D03*
X626110Y135890D02*
D03*
X334010Y113030D02*
D03*
X623570Y116840D02*
D03*
X624840Y81280D02*
D03*
X443230Y339090D02*
D03*
X345440Y355600D02*
D03*
X283210Y217170D02*
D03*
X172720Y335280D02*
D03*
X421640Y222250D02*
D03*
X560070Y535940D02*
D03*
X285750Y350520D02*
D03*
X273050Y598170D02*
D03*
X345440Y610870D02*
D03*
X312420Y368300D02*
D03*
X509270Y476250D02*
D03*
X332740Y654050D02*
D03*
X532130Y734060D02*
D03*
X284480Y731520D02*
D03*
X199468Y520778D02*
D03*
D63*
X365760Y252330D02*
D03*
D64*
X223520Y373380D02*
D03*
X247650Y382270D02*
D03*
M02*
