G04*
G04 #@! TF.GenerationSoftware,Altium Limited,Altium Designer,24.10.1 (45)*
G04*
G04 Layer_Color=8421504*
%FSLAX44Y44*%
%MOMM*%
G71*
G04*
G04 #@! TF.SameCoordinates,DF843893-4558-481A-A0A7-994FBF74EE7B*
G04*
G04*
G04 #@! TF.FilePolarity,Positive*
G04*
G01*
G75*
%ADD15R,0.2500X1.3500*%
%ADD16R,1.3500X0.2500*%
%ADD17R,1.0000X1.3500*%
%ADD18R,1.3546X1.4621*%
%ADD19R,1.3549X1.5562*%
%ADD20R,0.5200X0.5200*%
%ADD21R,1.4057X1.5082*%
%ADD22R,0.9000X1.6000*%
%ADD23R,0.9500X1.3500*%
%ADD24R,1.3500X1.0000*%
%ADD25R,1.0500X1.0500*%
%ADD26R,1.3621X1.1578*%
%ADD27R,1.3500X0.9500*%
%ADD28R,1.0500X1.0500*%
%ADD29R,1.5562X1.3549*%
%ADD30R,0.5200X0.5200*%
%ADD31R,1.0065X1.4082*%
%ADD32R,1.4621X1.3546*%
%ADD33R,0.4500X0.3500*%
%ADD34R,0.3000X0.4000*%
%ADD35R,0.2500X0.4000*%
%ADD36R,1.4750X0.3000*%
%ADD37R,0.3000X1.4750*%
%ADD38R,0.5500X0.5500*%
%ADD39R,1.5500X0.9000*%
%ADD40R,0.8065X1.3082*%
%ADD41R,1.3000X0.9000*%
D15*
X385210Y157480D02*
D03*
X400210Y242480D02*
D03*
X405210D02*
D03*
X390210D02*
D03*
X415210D02*
D03*
X435210D02*
D03*
X430210D02*
D03*
X410210D02*
D03*
X425210D02*
D03*
X420210D02*
D03*
X395210D02*
D03*
X385210D02*
D03*
X390210Y157480D02*
D03*
X410210D02*
D03*
X395210D02*
D03*
X405210D02*
D03*
X400210D02*
D03*
X420210D02*
D03*
X415210D02*
D03*
X380210Y242480D02*
D03*
X435210Y157480D02*
D03*
X430210D02*
D03*
X425210D02*
D03*
X380210D02*
D03*
D16*
X365210Y172480D02*
D03*
Y212480D02*
D03*
Y207480D02*
D03*
X450210Y227480D02*
D03*
Y222480D02*
D03*
Y172480D02*
D03*
Y177480D02*
D03*
Y182480D02*
D03*
Y187480D02*
D03*
Y192480D02*
D03*
Y197480D02*
D03*
Y202480D02*
D03*
Y207480D02*
D03*
Y212480D02*
D03*
Y217480D02*
D03*
X365210Y177480D02*
D03*
Y187480D02*
D03*
Y182480D02*
D03*
Y192480D02*
D03*
Y202480D02*
D03*
Y197480D02*
D03*
Y217480D02*
D03*
Y222480D02*
D03*
Y227480D02*
D03*
D17*
X406180Y49530D02*
D03*
X424180D02*
D03*
X416670Y363220D02*
D03*
X398670D02*
D03*
X443120Y29210D02*
D03*
X461120D02*
D03*
X401430Y80010D02*
D03*
X383430D02*
D03*
X370950Y114300D02*
D03*
X352950D02*
D03*
X460900Y341630D02*
D03*
X478900D02*
D03*
D18*
X504190Y27940D02*
D03*
X484674D02*
D03*
D19*
X522836Y160020D02*
D03*
X503324D02*
D03*
X562206Y191770D02*
D03*
X542693D02*
D03*
D20*
X456820Y281940D02*
D03*
X464820D02*
D03*
D21*
X506358Y118110D02*
D03*
X524882D02*
D03*
D22*
X472180Y81280D02*
D03*
X503180D02*
D03*
X284740Y421640D02*
D03*
X253740D02*
D03*
D23*
X355600Y143510D02*
D03*
X370600D02*
D03*
X369810Y363220D02*
D03*
X384810D02*
D03*
X447160Y116840D02*
D03*
X462160D02*
D03*
X432950Y115570D02*
D03*
X417950D02*
D03*
X386200D02*
D03*
X401200D02*
D03*
D24*
X275590Y148480D02*
D03*
Y166480D02*
D03*
Y181500D02*
D03*
Y199500D02*
D03*
D25*
X367030Y263360D02*
D03*
Y276860D02*
D03*
D26*
X405130Y302912D02*
D03*
Y286368D02*
D03*
D27*
X391160Y34170D02*
D03*
Y19170D02*
D03*
X307340Y165100D02*
D03*
Y150100D02*
D03*
X306566Y182480D02*
D03*
Y197480D02*
D03*
D28*
X490620Y118110D02*
D03*
X477120D02*
D03*
D29*
X198120Y392026D02*
D03*
Y372514D02*
D03*
X505460Y193847D02*
D03*
Y213360D02*
D03*
D30*
X382270Y293370D02*
D03*
Y301370D02*
D03*
D31*
X268003Y377190D02*
D03*
X287020D02*
D03*
X294021Y393700D02*
D03*
X313039D02*
D03*
D32*
X276860Y483066D02*
D03*
Y463550D02*
D03*
X528320Y83820D02*
D03*
Y64304D02*
D03*
X516890Y291634D02*
D03*
Y311150D02*
D03*
D33*
X226140Y399920D02*
D03*
X241140D02*
D03*
D34*
Y407670D02*
D03*
X226140D02*
D03*
Y392170D02*
D03*
X241140D02*
D03*
D35*
X236140Y407670D02*
D03*
X231140D02*
D03*
Y392170D02*
D03*
X236140D02*
D03*
D36*
X302260Y717620D02*
D03*
X517020D02*
D03*
Y712620D02*
D03*
Y707620D02*
D03*
Y702620D02*
D03*
Y697620D02*
D03*
Y692620D02*
D03*
Y687620D02*
D03*
Y682620D02*
D03*
Y677620D02*
D03*
Y672620D02*
D03*
Y667620D02*
D03*
Y662620D02*
D03*
Y657620D02*
D03*
Y652620D02*
D03*
Y647620D02*
D03*
Y642620D02*
D03*
Y637620D02*
D03*
Y632620D02*
D03*
Y627620D02*
D03*
Y622620D02*
D03*
Y617620D02*
D03*
Y612620D02*
D03*
Y607620D02*
D03*
Y602620D02*
D03*
Y597620D02*
D03*
Y592620D02*
D03*
Y587620D02*
D03*
Y582620D02*
D03*
Y577620D02*
D03*
Y572620D02*
D03*
Y567620D02*
D03*
Y562620D02*
D03*
Y557620D02*
D03*
Y552620D02*
D03*
Y547620D02*
D03*
Y542620D02*
D03*
X302260D02*
D03*
Y547620D02*
D03*
Y552620D02*
D03*
Y557620D02*
D03*
Y562620D02*
D03*
Y567620D02*
D03*
Y572620D02*
D03*
Y577620D02*
D03*
Y582620D02*
D03*
Y587620D02*
D03*
Y592620D02*
D03*
Y597620D02*
D03*
Y602620D02*
D03*
Y607620D02*
D03*
Y612620D02*
D03*
Y617620D02*
D03*
Y622620D02*
D03*
Y627620D02*
D03*
Y632620D02*
D03*
Y637620D02*
D03*
Y642620D02*
D03*
Y647620D02*
D03*
Y652620D02*
D03*
Y657620D02*
D03*
Y662620D02*
D03*
Y667620D02*
D03*
Y672620D02*
D03*
Y677620D02*
D03*
Y682620D02*
D03*
Y687620D02*
D03*
Y692620D02*
D03*
Y697620D02*
D03*
Y702620D02*
D03*
Y707620D02*
D03*
Y712620D02*
D03*
D37*
X322140Y737500D02*
D03*
X327140D02*
D03*
X332140D02*
D03*
X337140D02*
D03*
X342140D02*
D03*
X347140D02*
D03*
X352140D02*
D03*
X357140D02*
D03*
X362140D02*
D03*
X367140D02*
D03*
X372140D02*
D03*
X377140D02*
D03*
X382140D02*
D03*
X387140D02*
D03*
X392140D02*
D03*
X397140D02*
D03*
X402140D02*
D03*
X407140D02*
D03*
X412140D02*
D03*
X417140D02*
D03*
X422140D02*
D03*
X427140D02*
D03*
X432140D02*
D03*
X437140D02*
D03*
X442140D02*
D03*
X447140D02*
D03*
X452140D02*
D03*
X457140D02*
D03*
X462140D02*
D03*
X467140D02*
D03*
X472140D02*
D03*
X477140D02*
D03*
X482140D02*
D03*
X487140D02*
D03*
X492140D02*
D03*
X497140D02*
D03*
Y522740D02*
D03*
X492140D02*
D03*
X487140D02*
D03*
X482140D02*
D03*
X477140D02*
D03*
X472140D02*
D03*
X467140D02*
D03*
X462140D02*
D03*
X457140D02*
D03*
X452140D02*
D03*
X447140D02*
D03*
X442140D02*
D03*
X437140D02*
D03*
X432140D02*
D03*
X427140D02*
D03*
X422140D02*
D03*
X417140D02*
D03*
X412140D02*
D03*
X407140D02*
D03*
X402140D02*
D03*
X397140D02*
D03*
X392140D02*
D03*
X387140D02*
D03*
X382140D02*
D03*
X377140D02*
D03*
X372140D02*
D03*
X367140D02*
D03*
X362140D02*
D03*
X357140D02*
D03*
X352140D02*
D03*
X347140D02*
D03*
X342140D02*
D03*
X337140D02*
D03*
X332140D02*
D03*
X327140D02*
D03*
X322140D02*
D03*
D38*
X198120Y432490D02*
D03*
Y423490D02*
D03*
D39*
X585470Y43900D02*
D03*
Y70400D02*
D03*
D40*
X241807Y434340D02*
D03*
X224790D02*
D03*
D41*
X430530Y280800D02*
D03*
Y265300D02*
D03*
M02*
